<?xml version="1.0" encoding="UTF-8"?>
<svg version="1.1" xmlns="http://www.w3.org/2000/svg" width="500" height="500">
<path d="M0 0 C1.76376571 -0.00339833 1.76376571 -0.00339833 3.56316304 -0.00686532 C6.8138181 -0.01208868 10.06443824 -0.01285225 13.31509614 -0.01167095 C16.82563308 -0.01146642 20.33616184 -0.01699044 23.84669495 -0.02172852 C30.71753203 -0.03002246 37.58836053 -0.03278273 44.4592022 -0.03334089 C50.0415817 -0.03381636 55.62395837 -0.03587262 61.20633698 -0.03904152 C77.03165503 -0.04784229 92.85696631 -0.05246144 108.68228683 -0.05171105 C109.96106944 -0.05165111 109.96106944 -0.05165111 111.26568604 -0.05158997 C112.54602753 -0.05152864 112.54602753 -0.05152864 113.85223451 -0.05146609 C127.70430738 -0.0510591 141.55635313 -0.06064343 155.40841815 -0.07472833 C169.62986224 -0.08907495 183.85129309 -0.09599956 198.07274461 -0.09513456 C206.05794563 -0.09480214 214.04311817 -0.0975691 222.02831268 -0.10831261 C228.82208585 -0.11739475 235.61581761 -0.11961153 242.40959421 -0.11280318 C245.8772998 -0.10952723 249.34492584 -0.10951994 252.81262398 -0.11815643 C256.56631704 -0.12581261 260.31979821 -0.12127414 264.07348633 -0.11352539 C265.17667513 -0.11866895 266.27986392 -0.12381252 267.41648269 -0.12911195 C268.41787347 -0.12451315 269.41926425 -0.11991435 270.45100021 -0.1151762 C271.31790442 -0.11539357 272.18480863 -0.11561094 273.07798266 -0.11583489 C275.28277588 0.13371277 275.28277588 0.13371277 278.28277588 2.13371277 C279.2669238 5.24013885 279.04358414 7.99124386 278.28277588 11.13371277 C276.01226898 14.84581136 273.42054829 18.11565457 270.28277588 21.13371277 C269.62277588 21.13371277 268.96277588 21.13371277 268.28277588 21.13371277 C268.18996338 21.93808777 268.18996338 21.93808777 268.09527588 22.75871277 C266.88242324 26.30397433 264.83666662 28.39295197 262.28277588 31.13371277 C261.62277588 31.13371277 260.96277588 31.13371277 260.28277588 31.13371277 C259.91152588 32.21652527 259.91152588 32.21652527 259.53277588 33.32121277 C258.28277588 36.13371277 258.28277588 36.13371277 256.25933838 38.41105652 C252.58118885 43.47759846 252.80676839 50.35138301 253.57183838 56.43058777 C254.4195326 59.79262926 255.68192785 61.88752583 258.28277588 64.13371277 C258.28277588 64.79371277 258.28277588 65.45371277 258.28277588 66.13371277 C259.6053606 66.82145682 260.94264091 67.4808265 262.28277588 68.13371277 C263.19672119 68.64418152 264.1106665 69.15465027 265.05230713 69.68058777 C271.85807398 72.5864507 279.97960699 71.56946192 287.23199463 71.57316589 C288.44758057 71.5918573 289.6631665 71.61054871 290.91558838 71.62980652 C292.56905273 71.63258606 292.56905273 71.63258606 294.25592041 71.63542175 C298.14276338 72.27528677 299.58050867 73.26342785 302.28277588 76.13371277 C302.77928296 79.13401462 302.95463439 81.57127226 302.91046143 84.57072449 C302.9213681 85.84461533 302.9213681 85.84461533 302.93249512 87.14424133 C302.95109385 89.95105104 302.93501542 92.7565898 302.91949463 95.56340027 C302.92753429 97.51630289 302.93805211 99.46919674 302.95094299 101.42207336 C302.97952096 106.56552838 302.98006303 111.70858078 302.9730835 116.85209656 C302.96576747 125.07753893 302.9971424 133.30285013 303.035532 141.5281868 C303.04437246 144.39873281 303.03908338 147.26899626 303.03196716 150.13954163 C303.03535286 151.90566586 303.03910249 153.67178944 303.04327393 155.43791199 C303.03473137 156.63042572 303.03473137 156.63042572 303.02601624 157.84703064 C303.06306979 164.83783333 304.43387133 169.88073284 309.28277588 175.13371277 C315.34875107 180.93008907 320.94935493 182.37590552 329.22442627 182.40837097 C329.8790535 182.4134819 330.53368073 182.41859283 331.20814514 182.42385864 C333.34900321 182.43763803 335.48953529 182.43680738 337.63043213 182.43449402 C339.13063169 182.4383862 340.63083016 182.44272195 342.13102722 182.44747925 C345.26538681 182.45491549 348.39963368 182.45466826 351.53399658 182.4493866 C355.54096862 182.44358278 359.5474798 182.46055717 363.55437565 182.48373127 C366.64884617 182.49849197 369.74320612 182.49933737 372.83770561 182.49622154 C374.31482293 182.49673317 375.79194669 182.50194099 377.26902962 182.51203346 C379.3364951 182.52443231 381.40306781 182.51758775 383.47052002 182.50602722 C385.23088341 182.50697136 385.23088341 182.50697136 387.02680969 182.50793457 C390.67659976 182.08844894 393.08277356 180.88440964 396.28277588 179.13371277 C396.94277588 179.13371277 397.60277588 179.13371277 398.28277588 179.13371277 C398.61277588 178.14371277 398.94277588 177.15371277 399.28277588 176.13371277 C400.76777588 175.14371277 400.76777588 175.14371277 402.28277588 174.13371277 C403.51862868 170.42615437 403.44327616 166.97962059 403.45635986 163.11735535 C403.46304687 162.30071411 403.46973389 161.48407288 403.47662354 160.64268494 C403.49067475 158.86826888 403.50256859 157.09383474 403.51257133 155.31939125 C403.52899558 152.50667426 403.55223644 149.69409014 403.57746887 146.88143921 C403.64818866 138.88381087 403.7082257 130.88612706 403.75958252 122.88835144 C403.79147737 117.99593823 403.83278386 113.10367605 403.87977791 108.21138573 C403.89574042 106.35078858 403.90808837 104.49015664 403.9166851 102.62951088 C403.9289182 100.01853344 403.95310258 97.407907 403.97979736 94.79704285 C403.98038651 94.03570541 403.98097565 93.27436798 403.98158264 92.48995972 C404.05595608 86.965593 404.33052732 80.7650043 407.72027588 76.19621277 C411.39351794 73.69840816 414.99325151 73.8378835 419.28277588 74.13371277 C423.51279103 75.96031022 425.21781463 78.07850454 427.28277588 82.13371277 C427.65882337 84.66450602 427.65882337 84.66450602 427.6602993 87.40064335 C427.66812254 88.44821688 427.67594579 89.49579041 427.68400609 90.57510859 C427.67731393 91.71964343 427.67062176 92.86417828 427.66372681 94.043396 C427.66840678 95.26426704 427.67308675 96.48513808 427.67790854 97.74300522 C427.68780723 101.1291896 427.6842406 104.51487511 427.67494988 107.90102923 C427.66816614 111.55425589 427.67863761 115.20743876 427.68688965 118.86065674 C427.7002392 126.01823115 427.697343 133.17571126 427.68865173 140.33328939 C427.68187669 146.15401372 427.6809577 151.97471162 427.68422318 157.79543877 C427.68468287 158.62390501 427.68514257 159.45237126 427.6856162 160.30594255 C427.68657539 161.98904611 427.68754803 163.67214966 427.68853398 165.35525321 C427.69709241 181.14558653 427.68724857 196.93586765 427.67113288 212.72619241 C427.65774663 226.26057763 427.66004292 239.7948856 427.67388916 253.32926941 C427.68996693 269.05223119 427.69625012 284.7751471 427.68705237 300.49811596 C427.68609676 302.17716944 427.68515364 303.85622292 427.68422318 305.53527641 C427.68376035 306.36134601 427.68329752 307.1874156 427.68282067 308.03851761 C427.68023607 313.84535683 427.6845907 319.65216685 427.69166183 325.45900154 C427.70010223 332.54610453 427.69774429 339.63310792 427.6818196 346.72019959 C427.67396821 350.33282701 427.6707911 353.94528877 427.68076706 357.55791473 C427.69144324 361.48375025 427.67864229 365.40931818 427.66372681 369.33514404 C427.67041897 370.46406384 427.67711114 371.59298363 427.68400609 372.75611311 C427.5775004 387.26630364 423.64448647 400.9072498 413.47027588 411.57121277 C402.42055244 421.86229847 390.35926847 424.61292827 375.52886963 424.53215027 C374.34736832 424.53502045 373.165867 424.53789062 371.94856262 424.54084778 C369.46694455 424.54287684 366.98531005 424.53742868 364.50372314 424.52482605 C360.72723331 424.5087424 356.95181125 424.52472286 353.175354 424.54386902 C350.75152354 424.54188666 348.32769374 424.53804315 345.90386963 424.53215027 C344.78693222 424.53822296 343.66999481 424.54429565 342.51921082 424.55055237 C333.34151489 424.46905154 325.01454804 423.366895 317.90777588 417.13371277 C317.1162915 416.45308777 316.32480713 415.77246277 315.50933838 415.07121277 C314.77457275 414.43183777 314.03980713 413.79246277 313.28277588 413.13371277 C310.16336649 410.39438844 310.16336649 410.39438844 306.03277588 410.32121277 C302.08752417 411.17601731 298.18656596 412.10639959 294.28277588 413.13371277 C294.18480713 413.95613464 294.08683838 414.77855652 293.98590088 415.62590027 C291.68514602 432.80222534 291.68514602 432.80222534 286.78277588 437.60246277 C278.67391624 442.85820513 267.15078544 441.28126042 257.88922119 441.05656433 C256.39820294 441.02459064 254.90691321 441.00348028 253.41558838 440.99308777 C239.42528656 440.89491021 239.42528656 440.89491021 234.90777588 437.84074402 C230.01019532 432.79011406 228.25611088 427.79775915 227.78277588 420.82121277 C227.5550812 417.62853744 227.43772659 416.37209848 225.65777588 413.63371277 C221.71345155 411.14256056 218.09292532 410.01533787 213.41558838 410.32121277 C208.56641734 411.57885314 205.47853765 414.66453808 201.67340088 417.80949402 C191.59987338 425.12155469 181.18877251 424.70790833 169.26983643 424.65129089 C167.34858674 424.65671785 165.42734122 424.66384371 163.50610352 424.67253113 C158.30960294 424.69070284 153.11342151 424.68372138 147.91691566 424.67101479 C142.46308042 424.66085081 137.00927155 424.67029028 131.55543518 424.67655945 C122.39524459 424.68382782 113.23518317 424.67427132 104.07501221 424.65519714 C93.50946417 424.63344954 82.94422519 424.64046778 72.3786847 424.66250277 C63.28533475 424.68070315 54.19207742 424.68319187 45.09871513 424.67274809 C39.67749557 424.66653611 34.25642085 424.66561364 28.8352108 424.67889404 C23.73377023 424.69051887 18.63272457 424.68230645 13.53132629 424.65931702 C11.66783107 424.65406433 9.80430215 424.6554841 7.94082069 424.66436768 C-6.5921309 424.72721726 -18.82927126 423.2973431 -30.71722412 414.13371277 C-31.70722412 413.43246277 -32.69722412 412.73121277 -33.71722412 412.00871277 C-35.8351768 410.02313213 -36.4118179 408.98417085 -36.71722412 406.13371277 C-37.37722412 406.13371277 -38.03722412 406.13371277 -38.71722412 406.13371277 C-39.86552389 403.86409677 -41.0109439 401.59310499 -42.15472412 399.32121277 C-42.4802124 398.67861511 -42.80570068 398.03601746 -43.14105225 397.37394714 C-45.65971149 392.36259422 -46.84213145 388.81656671 -46.85423851 383.22268772 C-46.86185032 381.35947025 -46.86185032 381.35947025 -46.86961591 379.45861202 C-46.87021761 378.07260744 -46.87071668 376.6866028 -46.87112427 375.30059814 C-46.8751386 373.83400638 -46.87957678 372.36741571 -46.88440382 370.90082639 C-46.89637891 366.86041075 -46.90201997 362.82000705 -46.90658498 358.77957714 C-46.91253771 354.42556846 -46.92414855 350.0715741 -46.93487549 345.71757507 C-46.95940975 335.19587712 -46.97402954 324.67417443 -46.98693556 314.15245667 C-46.99064719 311.18042646 -46.99462046 308.20839673 -46.99868822 305.23636699 C-47.02392793 286.78025099 -47.04598102 268.32413425 -47.05841637 249.8680048 C-47.06134607 245.59190938 -47.06430773 241.31581399 -47.06732178 237.03971863 C-47.06806783 235.97691338 -47.06881388 234.91410814 -47.06958254 233.81909668 C-47.08223053 216.6102169 -47.11544518 199.40144058 -47.15712361 182.19260914 C-47.19956557 164.52358163 -47.22311415 146.85460704 -47.22833693 129.1855287 C-47.23174882 119.26552258 -47.24347762 109.34567803 -47.27643967 99.42572212 C-47.30447261 90.9752889 -47.31542535 82.52505035 -47.30424421 74.07457424 C-47.29906555 69.76516911 -47.30189234 65.45617145 -47.32670975 61.14682579 C-47.34927496 57.19543609 -47.34840669 53.24474482 -47.32950588 49.29334228 C-47.32671595 47.86993424 -47.33224806 46.4464781 -47.34731881 45.02314711 C-47.48153152 31.51285743 -43.91381621 21.13449116 -34.71722412 11.13371277 C-24.45901593 1.10346476 -13.62339965 -0.0192798 0 0 Z " fill="#215D69" transform="translate(56.71722412109375,53.86628723144531)"/>
<path d="M0 0 C0.33 0 0.66 0 1 0 C1.00808685 1.08914703 1.01617371 2.17829407 1.02450562 3.30044556 C1.10202996 13.57054905 1.18978525 23.84052109 1.28752708 34.11045265 C1.3374477 39.39017744 1.38377823 44.66988263 1.421875 49.94970703 C1.45878113 55.04614718 1.50515577 60.14242167 1.55806351 65.23871994 C1.5765791 67.18190985 1.59169751 69.12513523 1.60334396 71.06837845 C1.62025484 73.7926653 1.64930171 76.51657512 1.68115234 79.24072266 C1.68331253 80.04201599 1.68547272 80.84330933 1.68769836 81.66888428 C1.79199861 88.66391664 3.1448245 93.74022654 8 99 C14.0659752 104.7963763 19.66657905 106.24219275 27.94165039 106.2746582 C28.59627762 106.27976913 29.25090485 106.28488007 29.92536926 106.29014587 C32.06622733 106.30392526 34.20675942 106.30309461 36.34765625 106.30078125 C37.84785581 106.30467344 39.34805428 106.30900918 40.84825134 106.31376648 C43.98261093 106.32120272 47.1168578 106.32095549 50.2512207 106.31567383 C54.25819274 106.30987002 58.26470392 106.3268444 62.27159977 106.3500185 C65.36607029 106.3647792 68.46043024 106.3656246 71.55492973 106.36250877 C73.03204705 106.3630204 74.50917081 106.36822823 75.98625374 106.37832069 C78.05371922 106.39071954 80.12029193 106.38387498 82.18774414 106.37231445 C83.94810753 106.37325859 83.94810753 106.37325859 85.74403381 106.3742218 C89.39382388 105.95473618 91.79999769 104.75069687 95 103 C95.66 103 96.32 103 97 103 C97.33 102.01 97.66 101.02 98 100 C99.485 99.01 99.485 99.01 101 98 C102.24693853 94.25918442 102.17670355 90.75521956 102.20532227 86.85668945 C102.21522186 86.02719788 102.22512146 85.1977063 102.23532104 84.34307861 C102.26692205 81.59984191 102.29168798 78.85658789 102.31640625 76.11328125 C102.33697698 74.21184335 102.35797349 72.31041001 102.37937927 70.40898132 C102.43458761 65.40310356 102.48400238 60.39718462 102.53222656 55.39123535 C102.5824506 50.28357272 102.63813196 45.17596993 102.69335938 40.06835938 C102.80092582 30.04562404 102.90237419 20.02283675 103 10 C103.33 10 103.66 10 104 10 C104.0915882 47.5384088 104.16205532 85.07680075 104.20426132 122.61529871 C104.20926405 127.04870844 104.21444135 131.48211794 104.21972656 135.91552734 C104.2207758 136.79812621 104.22182505 137.68072508 104.22290608 138.59006937 C104.24030354 152.87437143 104.2718376 167.15860899 104.30861118 181.44287281 C104.34603895 196.10369796 104.36823974 210.76448936 104.37635398 225.42536032 C104.38183795 234.46934831 104.39914834 243.51315397 104.43166587 252.55708583 C104.45283642 258.76182555 104.4591943 264.96647123 104.45400551 271.17124443 C104.45144766 274.74922907 104.4553232 278.32689548 104.4768219 281.9048233 C104.49999569 285.7900488 104.49192664 289.67486322 104.48101807 293.56015015 C104.49266943 294.68274243 104.5043208 295.80533471 104.51632524 296.96194494 C104.455977 304.9258058 103.11068768 311.98093924 98.140625 318.40234375 C97.51671875 318.90894531 96.8928125 319.41554688 96.25 319.9375 C95.32960938 320.72447266 95.32960938 320.72447266 94.390625 321.52734375 C86.09002294 326.64062312 78.54152115 326.36973277 69 326.1875 C67.63933774 326.17242476 66.27865931 326.15874138 64.91796875 326.14648438 C61.61156157 326.11130983 58.30599316 326.06208288 55 326 C55.93838292 324.89046905 56.87890963 323.78275102 57.8203125 322.67578125 C58.34383301 322.05872314 58.86735352 321.44166504 59.40673828 320.8059082 C61 319 61 319 62.50341797 317.56323242 C65.27675172 314.7815066 66.47585315 312.3230784 66.875 308.5 C66.65244079 302.63333912 63.51477133 298.47866561 60.11474609 293.91015625 C57.00506454 289.63205489 57.00506454 289.63205489 56.98046875 286.5625 C58.39244607 283.01362213 60.05793116 279.66984404 61.875 276.3125 C62.22691406 275.63638672 62.57882812 274.96027344 62.94140625 274.26367188 C64.70577884 270.9677714 65.83882388 269.10745075 69 267 C71.23961649 266.62016554 73.49268259 266.31681151 75.75 266.0625 C81.92410216 265.24693233 86.8486651 264.41602342 91.875 260.5625 C93.97590023 257.64458301 94.12851509 254.38728792 94.19287109 250.87744141 C94.20893402 250.07625885 94.22499695 249.27507629 94.24154663 248.44961548 C94.28630438 244.80333651 94.32703439 241.15723176 94.35009766 237.51074219 C94.36666938 235.59037162 94.39397548 233.67006303 94.43212891 231.75 C94.48700209 228.97103114 94.50878394 226.19350069 94.5234375 223.4140625 C94.55744156 222.13409897 94.55744156 222.13409897 94.59213257 220.82827759 C94.57748071 216.67703766 94.33499596 213.85066341 91.73730469 210.51000977 C89.20816374 208.19087865 87.94607134 207.15828583 84.6796875 206.42578125 C83.89722656 206.23306641 83.11476563 206.04035156 82.30859375 205.84179688 C81.50550781 205.66712891 80.70242188 205.49246094 79.875 205.3125 C78.2660675 204.94288037 76.65916055 204.56430241 75.0546875 204.17578125 C74.34812012 204.02020752 73.64155273 203.86463379 72.91357422 203.7043457 C70.61918488 202.85983011 69.54191022 201.88309886 68 200 C66.83203125 197.0390625 66.83203125 197.0390625 65.8125 193.625 C65.46832031 192.50351562 65.12414062 191.38203125 64.76953125 190.2265625 C63.16504101 183.49910596 63.16504101 183.49910596 64.9284668 180.33300781 C66.20545341 178.44083614 67.5494844 176.62468408 68.9375 174.8125 C74.08184193 168.25655033 74.08184193 168.25655033 75.38671875 160.1875 C74.62994968 155.90678606 71.79941258 153.18894123 69 150 C68.05697447 148.88939375 67.11570963 147.77729115 66.17578125 146.6640625 C63.60170179 143.62639505 61.00142709 140.61256859 58.390625 137.60644531 C57.200368 136.23146444 56.02094037 134.84712182 54.84375 133.4609375 C49.99336259 127.78087856 46.12067731 123.38973462 38.32421875 122.65234375 C33.29905361 122.71554615 29.94346327 124.90208059 25.8125 127.5625 C18.87427172 131.99435043 18.87427172 131.99435043 15.58203125 132.015625 C14.72996094 131.68046875 13.87789063 131.3453125 13 131 C12.33299072 130.74081787 11.66598145 130.48163574 10.97875977 130.21459961 C8.58645374 129.25559406 6.23210208 128.2298461 3.875 127.1875 C3.06417969 126.84396484 2.25335938 126.50042969 1.41796875 126.14648438 C-6.27657319 122.75707045 -6.27657319 122.75707045 -8 119 C-8.40625 116.046875 -8.40625 116.046875 -8.5 112.75 C-8.89769196 105.93570121 -9.39077601 100.48194477 -14.5625 95.5625 C-17.71427852 93.54212915 -19.38396715 92.87206472 -23.07910156 92.82299805 C-24.34116425 92.80374519 -24.34116425 92.80374519 -25.62872314 92.78410339 C-26.99586456 92.77302299 -26.99586456 92.77302299 -28.390625 92.76171875 C-29.327995 92.753647 -30.26536499 92.74557526 -31.23114014 92.73725891 C-33.21836495 92.72341314 -35.20561359 92.71269319 -37.19287109 92.70483398 C-40.22409545 92.68764688 -43.2542219 92.64376836 -46.28515625 92.59960938 C-48.21613781 92.58948017 -50.14712865 92.58096478 -52.078125 92.57421875 C-53.43312103 92.54795662 -53.43312103 92.54795662 -54.81549072 92.52116394 C-60.35629114 92.54014555 -63.67258816 93.18830107 -68 97 C-71.43849523 103.75842166 -72.22589239 109.50196683 -72.62109375 116.96875 C-73 120 -73 120 -75 123 C-77.41413236 124.10888376 -79.76496328 125.08420911 -82.25 126 C-83.56868401 126.49742108 -84.88640763 126.99739615 -86.203125 127.5 C-86.84701172 127.74234375 -87.49089844 127.9846875 -88.15429688 128.234375 C-90.25906075 129.0645092 -90.25906075 129.0645092 -93.109375 130.75 C-96.71476003 132.30908542 -98.2659192 132.15225797 -102 131 C-104.3422597 129.70118542 -106.56313708 128.37553562 -108.8125 126.9375 C-113.47924865 124.13597729 -117.47490219 121.79213892 -123.05859375 122.4296875 C-130.12714887 124.50616446 -134.0171246 130.20284017 -138.38671875 135.7421875 C-141.98229779 140.2853174 -145.83711918 144.60765135 -149.65869141 148.96044922 C-150.45992432 149.87721436 -150.45992432 149.87721436 -151.27734375 150.8125 C-151.99265259 151.62654297 -151.99265259 151.62654297 -152.72241211 152.45703125 C-155.97208441 156.38172625 -156.44345363 158.75345581 -156.30859375 163.671875 C-155.68153297 168.402612 -153.1071269 171.6765647 -150.140625 175.22265625 C-149.49609375 175.99480469 -148.8515625 176.76695312 -148.1875 177.5625 C-147.56230469 178.26503906 -146.93710938 178.96757812 -146.29296875 179.69140625 C-144.04687886 183.70179636 -145.76611623 187.1292639 -146.90234375 191.359375 C-147.24394531 192.47828125 -147.58554688 193.5971875 -147.9375 194.75 C-148.44603516 196.44382812 -148.44603516 196.44382812 -148.96484375 198.171875 C-150 201 -150 201 -152 203 C-155.52693862 203.84395919 -159.04951507 204.58004221 -162.61523438 205.23632812 C-167.79725465 206.32135583 -170.54682541 207.74531487 -174 212 C-175.68810885 215.3762177 -175.20653558 219.20255706 -175.23828125 222.91796875 C-175.25038887 224.2538781 -175.25038887 224.2538781 -175.26274109 225.61677551 C-175.2765871 227.50564627 -175.28730694 229.39454211 -175.29516602 231.28344727 C-175.31232903 234.15885632 -175.35620385 237.03310061 -175.40039062 239.90820312 C-175.41052208 241.74478322 -175.41903677 243.58137309 -175.42578125 245.41796875 C-175.45204338 246.69960152 -175.45204338 246.69960152 -175.47883606 248.00712585 C-175.45786258 253.84175953 -174.35742903 257.20023498 -171 262 C-166.38940303 265.92754557 -160.9423749 265.66583999 -155.15039062 265.90820312 C-150.96400385 266.23647486 -149.52368407 266.3907985 -146.6796875 269.69921875 C-146.12539062 270.78847656 -145.57109375 271.87773437 -145 273 C-144.13955078 274.485 -144.13955078 274.485 -143.26171875 276 C-142.74222656 276.99 -142.22273437 277.98 -141.6875 279 C-140.88892578 280.485 -140.88892578 280.485 -140.07421875 282 C-138.77124598 285.63884758 -138.88837028 287.31183867 -140 291 C-141.62706102 293.99613138 -143.35370292 296.84340809 -145.20507812 299.70117188 C-147.82695553 303.98246537 -148.61684254 307.01238748 -148 312 C-146.98701869 314.29436073 -146.98701869 314.29436073 -145.375 316.125 C-144.83359375 316.78886719 -144.2921875 317.45273437 -143.734375 318.13671875 C-141.34060506 320.70840402 -138.76068351 322.83089153 -136 325 C-136 325.33 -136 325.66 -136 326 C-158.38362741 326.11691745 -180.76720431 326.20502944 -203.15107536 326.25906086 C-213.5448313 326.28481793 -223.93839726 326.31992074 -234.33203125 326.37719727 C-243.39349343 326.42710865 -252.45481798 326.45930916 -261.51641381 326.47044247 C-266.31238416 326.47694813 -271.10796087 326.49218612 -275.90380478 326.52865028 C-280.42317346 326.56273208 -284.94198847 326.57302849 -289.46147346 326.56553841 C-291.11501263 326.56690753 -292.76857141 326.57676738 -294.42199898 326.59602737 C-303.41405293 326.69558344 -311.47100424 326.63818184 -319 321 C-326.67154557 313.18920298 -327.30187138 304.58130947 -327.24050903 294.09143066 C-327.24222107 293.01728912 -327.24393311 291.94314758 -327.24569702 290.8364563 C-327.2489986 287.23790786 -327.23797457 283.63954696 -327.22705078 280.04101562 C-327.22643794 277.41681677 -327.22670539 274.79261759 -327.2277813 272.16841888 C-327.22884243 265.85717171 -327.2196291 259.54598168 -327.20677864 253.23474917 C-327.19235361 245.93091199 -327.19078777 238.62709465 -327.18920898 231.32324219 C-327.17871711 212.0488191 -327.15079478 192.77440869 -327.125 173.5 C-327.08375 130.435 -327.0425 87.37 -327 43 C-219.09 43 -111.18 43 0 43 C0 28.81 0 14.62 0 0 Z " fill="#A7E4E2" transform="translate(358,130)"/>
<path d="M0 0 C2.30664062 -0.37231445 2.30664062 -0.37231445 5.15625 -0.36328125 C6.17847656 -0.36263672 7.20070313 -0.36199219 8.25390625 -0.36132812 C9.32511719 -0.34521484 10.39632812 -0.32910156 11.5 -0.3125 C13.10681641 -0.31733398 13.10681641 -0.31733398 14.74609375 -0.32226562 C22.73312996 -0.26687004 22.73312996 -0.26687004 25 2 C25.50244141 4.24658203 25.50244141 4.24658203 25.8515625 7.0078125 C25.98046875 7.99394531 26.109375 8.98007813 26.2421875 9.99609375 C26.36851562 11.02863281 26.49484375 12.06117188 26.625 13.125 C26.82609375 14.68541016 26.82609375 14.68541016 27.03125 16.27734375 C27.36177197 18.85069334 27.6843456 21.42479146 28 24 C32.89497244 25.99744792 37.79299368 27.9571233 42.78125 29.7109375 C58.23822645 35.15054546 58.23822645 35.15054546 64.89453125 39.93359375 C67.8258346 41.41827986 69.74460933 41.38657764 73 41 C76.16670631 39.58343159 76.16670631 39.58343159 79.1875 37.625 C80.72470703 36.68527344 80.72470703 36.68527344 82.29296875 35.7265625 C84.20850677 34.50481964 86.10958951 33.26027366 88 32 C91.06295251 32.10209842 92.10245302 33.09436462 94.375 35.1875 C95.24125 36.115625 96.1075 37.04375 97 38 C98.10291234 39.06380198 99.20708361 40.12630026 100.3125 41.1875 C103 44 103 44 103 46 C103.66 46 104.32 46 105 46 C105.875 48.5 105.875 48.5 106 52 C103.92197812 55.72663702 100.98613368 58.84444248 98.2265625 62.078125 C97.40285156 63.09132813 97.40285156 63.09132813 96.5625 64.125 C95.79099609 65.02605469 95.79099609 65.02605469 95.00390625 65.9453125 C93.52537109 68.97141948 94.14991119 70.78237414 95 74 C95.88098173 76.19025612 96.82334856 78.35642119 97.8125 80.5 C100.55732107 86.57465774 102.38513772 92.54576365 103.9453125 99.0390625 C105.17928456 102.50332481 106.01323743 103.84896114 109 106 C112.00570852 107.14222812 115.06669799 107.92507311 118.1875 108.6875 C119.82749648 109.10543869 121.46685849 109.52587771 123.10546875 109.94921875 C123.82887451 110.12799561 124.55228027 110.30677246 125.29760742 110.4909668 C127 111 127 111 128 112 C128.27898825 115.63826046 128.23177293 119.28980798 128.25 122.9375 C128.2809375 124.47954102 128.2809375 124.47954102 128.3125 126.05273438 C128.32023437 127.52516602 128.32023437 127.52516602 128.328125 129.02734375 C128.3374707 129.93218506 128.34681641 130.83702637 128.35644531 131.76928711 C128.23881836 132.50542236 128.12119141 133.24155762 128 134 C124.3030926 136.46460494 122.09634138 136.32556513 117.6875 136.5 C110.56662758 136.65540629 110.56662758 136.65540629 104 139 C102.2198809 141.81259595 101.13331873 144.81827413 100 147.9375 C99.32928856 149.67254127 98.65351662 151.40563493 97.97265625 153.13671875 C97.64410645 153.97509277 97.31555664 154.8134668 96.97705078 155.67724609 C95.35067718 159.5436425 93.20477681 163.06221564 90.93359375 166.578125 C89.57059305 170.11394272 90.09500814 172.34119169 91 176 C92.51737776 179.33261914 94.41018664 182.43444129 96.29296875 185.5703125 C97.83337906 188.26465025 98.97030608 190.44175434 99.13671875 193.5703125 C97.40938351 197.26241739 94.70788842 199.57395554 91.6875 202.25 C91.10548828 202.79140625 90.52347656 203.3328125 89.92382812 203.890625 C84.75524715 208.57337107 84.75524715 208.57337107 81 209 C78.49326949 207.65157204 76.26513989 206.29485257 73.9375 204.6875 C73.31294922 204.27048828 72.68839844 203.85347656 72.04492188 203.42382812 C70.35585243 202.29357568 68.67740906 201.14748639 67 200 C63.51195905 197.67463937 62.09859246 197.66542102 58 198 C55.84971696 198.94978897 55.84971696 198.94978897 54 200 C53.01 200 52.02 200 51 200 C51 200.66 51 201.32 51 202 C49.13794922 202.58007812 49.13794922 202.58007812 47.23828125 203.171875 C45.59617265 203.69734975 43.9542555 204.22342306 42.3125 204.75 C41.49587891 205.00265625 40.67925781 205.2553125 39.83789062 205.515625 C33.24367786 207.63244156 33.24367786 207.63244156 28 212 C27.05638642 214.83563066 26.66764152 217.66465953 26.3125 220.625 C25.22231544 228.77768456 25.22231544 228.77768456 23 231 C19.37567136 231.50499972 15.71803253 231.41669052 12.0625 231.4375 C11.04736328 231.47037109 10.03222656 231.50324219 8.98632812 231.53710938 C6.23770863 231.55711918 3.7033326 231.49829545 1 231 C-2.9997963 227.02950624 -2.73666388 221.43431888 -3.27734375 216.05859375 C-4.16187417 212.31487851 -4.88437927 211.24828619 -8 209 C-11.01925642 207.6559968 -14.11523556 206.60339636 -17.25 205.5625 C-22.31724492 203.87209255 -26.85694176 202.23212232 -31.296875 199.21484375 C-34.19162402 197.32786941 -34.19162402 197.32786941 -37.59765625 196.875 C-41.58706135 198.74320922 -44.76364041 201.58047244 -48.09570312 204.40625 C-51.66986796 207.31633924 -54.3295177 208.98067387 -59 209 C-61.1171875 207.85546875 -61.1171875 207.85546875 -62.875 206.1875 C-63.47054687 205.64480469 -64.06609375 205.10210937 -64.6796875 204.54296875 C-66 203 -66 203 -66 201 C-66.7425 200.731875 -67.485 200.46375 -68.25 200.1875 C-70.86636554 199.05770579 -72.80187111 197.79106798 -75 196 C-74.4622578 191.49889864 -73.32028993 188.29439084 -71.0625 184.375 C-70.04131429 182.58353415 -69.02045314 180.79188323 -68 179 C-67.60683594 178.35289062 -67.21367187 177.70578125 -66.80859375 177.0390625 C-65.42077101 173.53933559 -65.33826836 170.60753171 -66.78710938 167.08789062 C-67.88367078 164.93797191 -69.04945681 162.84357883 -70.25 160.75 C-73.30667377 155.23658259 -76.08607692 149.861575 -78.1484375 143.8828125 C-79.68360845 140.48853545 -81.31309536 139.27844863 -84.765625 137.87890625 C-88.09437882 136.97435358 -91.33369966 136.40586376 -94.75 135.9375 C-100.79495268 135.10252366 -100.79495268 135.10252366 -103 134 C-103.05789006 130.54173658 -103.09355821 127.08359707 -103.125 123.625 C-103.14175781 122.64015625 -103.15851563 121.6553125 -103.17578125 120.640625 C-103.18222656 119.69960938 -103.18867188 118.75859375 -103.1953125 117.7890625 C-103.20578613 116.91975098 -103.21625977 116.05043945 -103.22705078 115.15478516 C-103 113 -103 113 -101 111 C-98.37425702 110.23536056 -95.78459686 109.55650352 -93.125 108.9375 C-92.40441406 108.76412109 -91.68382812 108.59074219 -90.94140625 108.41210938 C-88.96212769 107.93642641 -86.98112476 107.46793438 -85 107 C-83.66620592 106.66851508 -82.33274443 106.33568015 -81 106 C-80.67128906 104.06060547 -80.67128906 104.06060547 -80.3359375 102.08203125 C-78.63912578 92.61181487 -76.84974889 84.31154936 -72.171875 75.82421875 C-70.65838427 72.1767061 -70.43235 69.92233346 -71 66 C-72.56323697 63.35937752 -74.51148863 61.14834999 -76.5625 58.875 C-81.96089137 52.85647903 -81.96089137 52.85647903 -82.1171875 49.43359375 C-80.66288273 46.26565014 -78.79880047 43.86032633 -76.5625 41.1875 C-75.75941406 40.21167969 -74.95632812 39.23585938 -74.12890625 38.23046875 C-73.42636719 37.49441406 -72.72382813 36.75835937 -72 36 C-71.34 36 -70.68 36 -70 36 C-70 35.34 -70 34.68 -70 34 C-67 32 -67 32 -64.68359375 32.125 C-60.23210681 33.57643097 -56.80005759 36.46705516 -53.03515625 39.1875 C-49.63405266 41.21853226 -47.96993399 42.08619881 -44 42 C-40.53373057 40.59627527 -37.35921306 38.74286735 -34.125 36.875 C-14.45209225 26 -14.45209225 26 -5 26 C-4.2278826 23.17610769 -3.78895474 20.47339326 -3.53515625 17.55859375 C-3.45716797 16.72779297 -3.37917969 15.89699219 -3.29882812 15.04101562 C-3.14095582 13.30181076 -2.98732622 11.56221569 -2.83789062 9.82226562 C-2.75861328 8.99275391 -2.67933594 8.16324219 -2.59765625 7.30859375 C-2.53070557 6.55376709 -2.46375488 5.79894043 -2.39477539 5.02124023 C-2 3 -2 3 0 0 Z " fill="#35848F" transform="translate(305,242)"/>
<path d="M0 0 C1.132187 -0.00256327 2.264374 -0.00512655 3.4308697 -0.0077675 C7.22656956 -0.01271091 11.02187214 0.00379734 14.8175354 0.02018738 C17.53760022 0.0227041 20.25765726 0.02069086 22.97772217 0.01885986 C28.83482352 0.01728794 34.6918245 0.0266886 40.5489006 0.04357338 C49.01719913 0.06796989 57.4854492 0.07576931 65.95377906 0.07953735 C79.69354826 0.08610082 93.43326398 0.10605913 107.17300415 0.13444519 C120.51870456 0.16198848 133.86439043 0.18322074 147.21011353 0.19596863 C148.03294796 0.1967568 148.8557824 0.19754497 149.70355122 0.19835702 C153.83153099 0.20227218 157.95951086 0.20606329 162.0874908 0.20979273 C196.32518087 0.24088537 230.56280744 0.29371831 264.80044556 0.36076355 C264.80044556 1.02076355 264.80044556 1.68076355 264.80044556 2.36076355 C265.79044556 2.69076355 266.78044556 3.02076355 267.80044556 3.36076355 C266.84927422 4.53327665 265.88927547 5.6986337 264.92544556 6.86076355 C264.39177368 7.51045105 263.85810181 8.16013855 263.30825806 8.82951355 C262.81067993 9.33482605 262.31310181 9.84013855 261.80044556 10.36076355 C261.14044556 10.36076355 260.48044556 10.36076355 259.80044556 10.36076355 C259.42919556 11.44357605 259.42919556 11.44357605 259.05044556 12.54826355 C257.80044556 15.36076355 257.80044556 15.36076355 255.77700806 17.6381073 C252.09885853 22.70464924 252.32443807 29.57843379 253.08950806 35.65763855 C253.93720228 39.01968004 255.19959753 41.11457662 257.80044556 43.36076355 C257.80044556 44.02076355 257.80044556 44.68076355 257.80044556 45.36076355 C259.12303028 46.0485076 260.46031058 46.70787728 261.80044556 47.36076355 C263.16942993 48.12453308 263.16942993 48.12453308 264.56607056 48.9037323 C271.40690116 51.82354466 279.54626228 50.8363173 286.83755493 50.8881073 C288.66576782 50.92097839 288.66576782 50.92097839 290.53091431 50.95451355 C291.63846069 50.96160339 292.74600708 50.96869324 293.88711548 50.97599792 C296.80044556 51.36076355 296.80044556 51.36076355 300.80044556 54.36076355 C300.80044556 61.95076355 300.80044556 69.54076355 300.80044556 77.36076355 C192.89044556 77.36076355 84.98044556 77.36076355 -26.19955444 77.36076355 C-26.19955444 13.33597016 -26.19955444 13.33597016 -20.38705444 6.61076355 C-19.92685913 6.0590448 -19.46666382 5.50732605 -18.99252319 4.93888855 C-13.15441658 -0.19966281 -7.37558639 -0.06100931 0 0 Z " fill="#358691" transform="translate(57.199554443359375,74.63923645019531)"/>
<path d="M0 0 C2.66470936 2.66470936 4.81506758 5.48532004 7.01171875 8.5390625 C8.49386595 10.60530873 8.49386595 10.60530873 10.8125 12.8125 C11.34875 13.34875 11.885 13.885 12.4375 14.4375 C12.4375 15.0975 12.4375 15.7575 12.4375 16.4375 C13.015 16.67984375 13.5925 16.9221875 14.1875 17.171875 C16.86272141 18.67668704 18.4170147 20.37618727 20.4375 22.6875 C21.613125 24.02554688 21.613125 24.02554688 22.8125 25.390625 C26.21630991 29.33050895 29.60242536 33.28574291 32.98095703 37.24731445 C36.73660526 41.6449179 40.57776533 45.95699646 44.45703125 50.24609375 C52.4375 59.07655325 52.4375 59.07655325 52.4375 61.4375 C52.98019531 61.6334375 53.52289063 61.829375 54.08203125 62.03125 C57.45425369 64.04451713 59.66019707 66.94184679 62.125 69.9375 C63.18623009 71.20679199 64.2487417 72.47501358 65.3125 73.7421875 C65.83714844 74.36834961 66.36179687 74.99451172 66.90234375 75.63964844 C69.75411847 78.97941768 72.77344482 82.16338047 75.79296875 85.3515625 C78.89066687 89.28070928 78.95235215 93.54640457 78.4375 98.4375 C76.43606432 101.21081698 74.84022058 103.11623473 71.40734863 103.90246582 C68.93164495 104.09593596 66.49880191 104.12960279 64.015625 104.109375 C63.11503357 104.12212463 62.21444214 104.13487427 61.28656006 104.14801025 C58.41988444 104.18426108 55.55438456 104.18701906 52.6875 104.1875 C49.80677091 104.20908748 46.92622048 104.2374867 44.04559326 104.26983643 C42.25500428 104.28765263 40.46432141 104.29788794 38.67364502 104.29998779 C34.74077263 103.92268184 34.74077263 103.92268184 31.4375 105.4375 C30.41948051 111.79646357 30.30361017 118.20726214 30.37158203 124.6315918 C30.37625488 125.48987579 30.38092773 126.34815979 30.38574219 127.23245239 C30.39615773 129.07607535 30.40879005 130.91968691 30.42346573 132.76328087 C30.4456829 135.68543567 30.45963406 138.60752387 30.47116089 141.52973938 C30.50458152 149.83119725 30.54649999 158.13254363 30.60888672 166.43383789 C30.64659028 171.52873772 30.66957038 176.62352733 30.68319321 181.71854591 C30.6912254 183.65259709 30.70480294 185.58663376 30.72412491 187.52060509 C30.75068771 190.22440553 30.75850404 192.92767678 30.76220703 195.6315918 C30.7745639 196.42293015 30.78692078 197.21426849 30.7996521 198.02958679 C30.78093869 203.2271302 30.03653862 206.88806495 27.4375 211.4375 C23.8541313 214.4018742 21.01769576 214.81517816 16.44140625 214.82568359 C15.25667725 214.83514008 14.07194824 214.84459656 12.85131836 214.8543396 C11.5803833 214.84826691 10.30944824 214.84219421 9 214.8359375 C7.68717041 214.83880768 6.37434082 214.84167786 5.02172852 214.84463501 C2.24777596 214.84904861 -0.52588602 214.84265885 -3.29980469 214.82861328 C-6.84737785 214.81152145 -10.39427003 214.82136788 -13.94181824 214.83933067 C-17.3362661 214.85280585 -20.73053282 214.84335867 -24.125 214.8359375 C-25.39593506 214.84201019 -26.66687012 214.84808289 -27.97631836 214.8543396 C-29.16104736 214.84488312 -30.34577637 214.83542664 -31.56640625 214.82568359 C-32.60611572 214.82329681 -33.6458252 214.82091003 -34.71704102 214.81845093 C-38.08850169 214.36707873 -39.90166473 213.55202973 -42.5625 211.4375 C-45.34253557 206.97014275 -44.85508208 201.81591333 -44.84960938 196.72192383 C-44.85644241 195.74904922 -44.86327545 194.77617462 -44.87031555 193.77381897 C-44.88388397 191.66603206 -44.89294981 189.55821242 -44.89802551 187.45038795 C-44.90631543 184.11823161 -44.9268191 180.78634918 -44.95056152 177.45426941 C-45.00696671 169.18276736 -45.04224865 160.91119909 -45.07818604 152.6395874 C-45.10937159 145.64323178 -45.14850514 138.64701025 -45.19844055 131.65076256 C-45.21857089 128.36129883 -45.22683946 125.07193753 -45.23474121 121.78242493 C-45.24770668 119.77657695 -45.26122596 117.77073245 -45.27539062 115.76489258 C-45.27391777 114.38485046 -45.27391777 114.38485046 -45.27241516 112.97692871 C-45.28482491 111.72152031 -45.28482491 111.72152031 -45.29748535 110.44075012 C-45.30041847 109.71165341 -45.30335159 108.98255671 -45.3063736 108.23136616 C-45.41557777 106.18438139 -45.41557777 106.18438139 -47.5625 104.4375 C-49.43130668 104.13568913 -49.43130668 104.13568913 -51.58154297 104.18212891 C-52.40935272 104.17516998 -53.23716248 104.16821106 -54.09005737 104.16104126 C-54.98588531 104.16203827 -55.88171326 104.16303528 -56.8046875 104.1640625 C-58.69401632 104.14377205 -60.5833392 104.12292123 -62.47265625 104.1015625 C-65.45724499 104.0789557 -68.4415991 104.06249196 -71.42626953 104.05664062 C-74.30284264 104.04712657 -77.1783522 104.01335923 -80.0546875 103.9765625 C-80.94646698 103.98160797 -81.83824646 103.98665344 -82.75704956 103.99185181 C-88.90689989 103.89406306 -88.90689989 103.89406306 -92.12939453 101.64990234 C-94.26585348 98.3516756 -94.18594471 95.19319104 -93.5625 91.4375 C-92.3125 88.75 -92.3125 88.75 -90.5625 86.4375 C-89.881875 85.509375 -89.20125 84.58125 -88.5 83.625 C-87.5409375 82.5421875 -87.5409375 82.5421875 -86.5625 81.4375 C-85.9025 81.4375 -85.2425 81.4375 -84.5625 81.4375 C-84.335625 80.715625 -84.10875 79.99375 -83.875 79.25 C-82.60727484 76.53344608 -81.30177511 75.04977696 -79.12890625 73.0390625 C-76.24331327 70.08870559 -73.83350972 66.72553376 -71.33203125 63.44921875 C-70.74808594 62.78535156 -70.16414063 62.12148437 -69.5625 61.4375 C-68.9025 61.4375 -68.2425 61.4375 -67.5625 61.4375 C-67.3253125 60.89609375 -67.088125 60.3546875 -66.84375 59.796875 C-65.21902243 56.80499863 -63.2123123 54.32590601 -61.0625 51.6875 C-59.87140625 50.21023437 -59.87140625 50.21023437 -58.65625 48.703125 C-57.9653125 47.95546875 -57.274375 47.2078125 -56.5625 46.4375 C-55.9025 46.4375 -55.2425 46.4375 -54.5625 46.4375 C-53.9025 44.7875 -53.2425 43.1375 -52.5625 41.4375 C-51.9025 41.4375 -51.2425 41.4375 -50.5625 41.4375 C-50.3253125 40.89609375 -50.088125 40.3546875 -49.84375 39.796875 C-48.21902243 36.80499863 -46.2123123 34.32590601 -44.0625 31.6875 C-42.87140625 30.21023437 -42.87140625 30.21023437 -41.65625 28.703125 C-40.9653125 27.95546875 -40.274375 27.2078125 -39.5625 26.4375 C-38.9025 26.4375 -38.2425 26.4375 -37.5625 26.4375 C-37.28994385 25.84727051 -37.0173877 25.25704102 -36.73657227 24.64892578 C-35.5924285 22.49387188 -34.38307614 20.8816707 -32.77734375 19.0546875 C-32.24689453 18.44496094 -31.71644531 17.83523437 -31.16992188 17.20703125 C-30.61884766 16.58183594 -30.06777344 15.95664062 -29.5 15.3125 C-28.4031326 14.06148515 -27.30799606 12.80894995 -26.21484375 11.5546875 C-25.73007568 11.00409668 -25.24530762 10.45350586 -24.74584961 9.88623047 C-23.46616815 8.42772263 -23.46616815 8.42772263 -22.5625 6.4375 C-21.9025 6.4375 -21.2425 6.4375 -20.5625 6.4375 C-20.335625 5.86 -20.10875 5.2825 -19.875 4.6875 C-17.90813028 1.31572333 -15.26929378 -0.82288936 -11.6875 -2.375 C-7.31790738 -2.76055229 -3.76694762 -2.29691928 0 0 Z " fill="#2BBDBD" transform="translate(417.5625,8.5625)"/>
<path d="M0 0 C0 0.66 0 1.32 0 2 C0.59425781 2.27972656 1.18851562 2.55945313 1.80078125 2.84765625 C14.28358994 9.38838194 23.42338706 24.07404909 28 37 C28.43323285 40.82409901 28.38089593 44.65349528 28.375 48.5 C28.37338867 49.57701172 28.37177734 50.65402344 28.37011719 51.76367188 C28.24537614 59.8693939 27.30564818 66.52785776 24 74 C23.71125 74.72574219 23.4225 75.45148438 23.125 76.19921875 C17.55397487 88.85837854 6.66216204 98.15064108 -5.0625 104.875 C-5.72314453 105.25664307 -6.38378906 105.63828613 -7.06445312 106.03149414 C-19.03460858 112.62605327 -35.84618073 113.50349718 -49.03515625 110.16015625 C-52.2326746 109.0062523 -55.0502889 107.68613528 -58 106 C-59.01964844 105.41863281 -60.03929687 104.83726562 -61.08984375 104.23828125 C-75.04100718 95.56498545 -86.46037857 82.82244572 -90.6171875 66.58984375 C-93.95456645 50.70300559 -92.18458229 33.96092058 -83.375 20.08203125 C-76.10857571 10.65241157 -67.07951955 0.79067276 -56 -4 C-55.07703125 -4.40605469 -54.1540625 -4.81210937 -53.203125 -5.23046875 C-35.294159 -11.88951321 -16.50849939 -8.29126427 0 0 Z " fill="#1F5D69" transform="translate(349,307)"/>
<path d="M0 0 C0.83523193 0.00974854 1.67046387 0.01949707 2.53100586 0.02954102 C13.37207572 0.33988702 20.56462659 3.33483938 28.39453125 10.953125 C36.57609885 19.81765139 41.56362245 29.37678562 41.09375 41.7109375 C39.21339801 54.33099222 33.02025313 65.79860054 22.75 73.4375 C13.35877678 79.37104558 4.78759136 80.49295741 -6.3125 79.4375 C-18.67639315 76.49608994 -27.94552971 67.17592227 -34.9921875 57.015625 C-40.00402275 47.89804901 -39.76964158 36.30320825 -37.6484375 26.30859375 C-33.81603536 15.66118085 -25.67556589 7.4282033 -15.54174805 2.5925293 C-10.33031097 0.40830023 -5.61651336 -0.07334044 0 0 Z " fill="#A4E4E2" transform="translate(316.3125,319.5625)"/>
<path d="M0 0 C5.29374122 2.72222636 9.12322311 6.25237077 11 12 C11.5943773 17.44845861 10.62528873 21.20205854 8 26 C3.06482612 30.68841519 -0.98174354 31.29540241 -7.5546875 31.21875 C-10.74944038 30.93295741 -12.58860892 30.1099672 -15 28 C-16.3125 25.8125 -16.3125 25.8125 -17 24 C-17.66 24 -18.32 24 -19 24 C-20.59447827 18.27024881 -21.05596703 13.07282416 -18.3125 7.6875 C-13.21655517 1.76518574 -8.03035952 -1.50033407 0 0 Z " fill="#1E5C69" transform="translate(80,98)"/>
<path d="M0 0 C4.85857844 2.29678253 7.63468979 5.17840611 10 10 C10.9021605 15.64610559 10.24179585 20.19319926 7 25 C2.04501545 29.58336071 -1.93388855 30.36895723 -8.49609375 30.2734375 C-12.90623783 29.7918305 -15.50065888 27.85074919 -18.25 24.45703125 C-21.24329528 19.9151214 -21.59633401 16.36700605 -21 11 C-19.46984594 6.40953783 -17.1553926 3.53904737 -13.16015625 0.91796875 C-8.85857424 -0.91000914 -4.55043488 -0.73549325 0 0 Z " fill="#1E5D69" transform="translate(179,99)"/>
<path d="M0 0 C4.32639273 4.11534918 6.27489095 7.42423668 7.125 13.375 C6.84290101 18.20829606 4.78799537 21.89434221 1.5625 25.4375 C-3.55766474 28.52892022 -7.62675451 28.99090433 -13.4375 28.4375 C-18.51218557 26.84544178 -20.96532668 24.18858239 -23.51953125 19.68359375 C-25.36012486 15.18001365 -25.32419643 10.99851707 -23.73828125 6.41796875 C-22.24805278 3.43122393 -20.52326864 1.50234946 -17.875 -0.5 C-11.72680745 -2.40035043 -5.91443273 -2.68837851 0 0 Z " fill="#1E5C69" transform="translate(133.4375,100.5625)"/>
<path d="M0 0 C0.33 0 0.66 0 1 0 C1 112.53 1 225.06 1 341 C1.66 341 2.32 341 3 341 C2.34 342.98 1.68 344.96 1 347 C-0.99509369 343.66895598 -1.24971734 341.15420844 -1.24888897 337.29833603 C-1.25348777 336.12836791 -1.25808656 334.95839979 -1.26282471 333.75297809 C-1.25768115 332.46661873 -1.25253759 331.18025938 -1.24723816 329.85491943 C-1.2488261 328.47535939 -1.25128955 327.09580012 -1.25455457 325.71624303 C-1.26097765 321.92116033 -1.25489247 318.12618405 -1.24679029 314.33110833 C-1.24022012 310.23964102 -1.24516036 306.14818574 -1.24867249 302.05671692 C-1.25371874 294.03875664 -1.24806706 286.02083755 -1.23882218 278.00288239 C-1.22844383 268.66643596 -1.22850825 259.32999847 -1.22899476 249.99354735 C-1.22949565 233.33244084 -1.22032776 216.6713535 -1.20581055 200.01025391 C-1.1917317 183.8439092 -1.18463938 167.67758139 -1.18530273 151.51123047 C-1.18534269 150.51616107 -1.18538265 149.52109167 -1.18542381 148.49586865 C-1.18546417 147.50252067 -1.18550452 146.50917269 -1.1855461 145.48572326 C-1.18623632 127.08555641 -1.18034251 108.68539675 -1.17139288 90.28523223 C-1.168378 83.77822578 -1.16731348 77.27122064 -1.16686058 70.76421356 C-1.16617777 62.83049603 -1.16170394 54.89679058 -1.15252777 46.96307817 C-1.14791645 42.91557251 -1.14486181 38.86808228 -1.14612198 34.82057381 C-1.14722023 31.11328716 -1.14367902 27.4060346 -1.13647345 23.69875506 C-1.13381194 21.72650357 -1.13601459 19.75424736 -1.1384055 17.78199553 C-1.12195227 11.75882803 -0.93027147 5.95406221 0 0 Z " fill="#134355" transform="translate(11,95)"/>
<path d="M0 0 C0.33 0 0.66 0 1 0 C1.81786068 6.89330604 2.13697304 13.66316486 2.09765625 20.6015625 C2.09553383 22.04527725 2.09553383 22.04527725 2.09336853 23.51815796 C2.08782807 26.55380532 2.07528716 29.58937541 2.0625 32.625 C2.05747729 34.69921768 2.05291574 36.77343652 2.04882812 38.84765625 C2.03787824 43.89846669 2.02065564 48.9492203 2 54 C1.34 54 0.68 54 0 54 C-1.67154584 50.65690833 -1.14154476 46.89804868 -1.1328125 43.22265625 C-1.13376923 42.34153671 -1.13472595 41.46041718 -1.13571167 40.55259705 C-1.13639342 38.68049041 -1.13453952 36.80838142 -1.13037109 34.9362793 C-1.1250799 32.10524993 -1.13028629 29.27438341 -1.13671875 26.44335938 C-1.13965847 17.58685469 -1.13257204 8.80129734 0 0 Z " fill="#4AB2B1" transform="translate(446,114)"/>
<path d="M0 0 C0.33 0.66 0.66 1.32 1 2 C14.53 1.67 28.06 1.34 42 1 C42 1.99 42 2.98 42 4 C27.81 4 13.62 4 -1 4 C-0.67 2.68 -0.34 1.36 0 0 Z " fill="#44BEBD" transform="translate(449,108)"/>
<path d="M0 0 C4.78717542 -0.04943465 9.57420227 -0.08573582 14.36157227 -0.10986328 C15.99017932 -0.11992142 17.61876832 -0.13356958 19.24731445 -0.15087891 C21.58809872 -0.17513574 23.92864424 -0.18648483 26.26953125 -0.1953125 C27.36186821 -0.21079636 27.36186821 -0.21079636 28.47627258 -0.22659302 C32.21275069 -0.22742249 33.80675056 -0.12883296 37 2 C36.04882866 3.1725131 35.08882991 4.33787015 34.125 5.5 C33.59132813 6.1496875 33.05765625 6.799375 32.5078125 7.46875 C32.01023437 7.9740625 31.51265625 8.479375 31 9 C30.34 9 29.68 9 29 9 C29.65900754 5.92463146 30.53867783 3.92264434 32 1 C21.44 1 10.88 1 0 1 C0 0.67 0 0.34 0 0 Z " fill="#408996" transform="translate(288,76)"/>
<path d="M0 0 C0.66 1.98 1.32 3.96 2 6 C-1.28696233 6.79953138 -2.71023192 7.09658936 -6 6 C-6 5.34 -6 4.68 -6 4 C-6.66 3.67 -7.32 3.34 -8 3 C-9.0194119 2.01979625 -10.02246356 1.02196992 -11 0 C-7.18243176 -1.37432457 -3.92744671 -0.67975039 0 0 Z " fill="#28BDC0" transform="translate(415,7)"/>
<path d="M0 0 C0.86625 0.3403125 0.86625 0.3403125 1.75 0.6875 C-0.18617021 7.38962766 -0.18617021 7.38962766 -3.25 9.6875 C-3.91 9.6875 -4.57 9.6875 -5.25 9.6875 C-5.91 9.0275 -6.57 8.3675 -7.25 7.6875 C-7.08796394 4.52779684 -6.65186911 3.10322667 -4.4375 0.8125 C-2.25 -0.3125 -2.25 -0.3125 0 0 Z " fill="#2D606B" transform="translate(27.25,63.3125)"/>
<path d="M0 0 C1.5 1.0625 1.5 1.0625 3 3 C3.4375 6.4375 3.4375 6.4375 3 10 C1 12.4375 1 12.4375 -1 14 C-3 12 -3 12 -3.125 8.875 C-3.08375 7.92625 -3.0425 6.9775 -3 6 C-2.34 5.67 -1.68 5.34 -1 5 C-0.34444881 2.47266765 -0.34444881 2.47266765 0 0 Z " fill="#31BFBE" transform="translate(493,97)"/>
<path d="M0 0 C0.33 0 0.66 0 1 0 C0.4912133 7.88619392 -0.79062909 16.50027148 -7 22 C-7.33 20.02 -7.66 18.04 -8 16 C-7.34 16 -6.68 16 -6 16 C-6.33 15.01 -6.66 14.02 -7 13 C-5.68 12.67 -4.36 12.34 -3 12 C-2.67 9.69 -2.34 7.38 -2 5 C-1.34 5 -0.68 5 0 5 C0 3.35 0 1.7 0 0 Z " fill="#416B73" transform="translate(482,436)"/>
<path d="M0 0 C2.62451617 2.62451617 2.5832868 4.4877828 3.125 8.125 C3.29257812 9.22070312 3.46015625 10.31640625 3.6328125 11.4453125 C3.75398438 12.28835938 3.87515625 13.13140625 4 14 C4.66 13.67 5.32 13.34 6 13 C6 13.99 6 14.98 6 16 C6.66 16.33 7.32 16.66 8 17 C7.34 17 6.68 17 6 17 C5.34 18.32 4.68 19.64 4 21 C0.01162482 13.94912244 -0.48817841 8.01426231 0 0 Z " fill="#4E7078" transform="translate(285,468)"/>
<path d="M0 0 C2.37327719 2.37327719 2.2957818 2.94974106 2.3125 6.1875 C2.19205641 10.85468917 1.38460188 13.97084509 -1 18 C-3.6875 19.4375 -3.6875 19.4375 -6 20 C-5.01784611 17.35573953 -4.08359776 15.11703687 -2.4375 12.8125 C-0.33575885 8.70039775 -0.25684107 4.56114312 0 0 Z " fill="#55C1BF" transform="translate(446,202)"/>
<path d="M0 0 C0.99 0.33 1.98 0.66 3 1 C3.84375 3.3984375 3.84375 3.3984375 4.5 6.375 C5.34484514 10.18686079 5.92646622 12.48994741 9 15 C8.01 16.32 7.02 17.64 6 19 C2.82523652 12.62704304 0.40475235 7.15062486 0 0 Z " fill="#537A81" transform="translate(10,438)"/>
<path d="M0 0 C1 2 1 2 1 4 C1.66 4.33 2.32 4.66 3 5 C1.25 8 1.25 8 -1 11 C-2.32 11 -3.64 11 -5 11 C-6.34164079 11.2981424 -7.67851173 11.62243192 -9 12 C-9 10 -9 10 -6.75 7.6875 C-5.38875 6.3571875 -5.38875 6.3571875 -4 5 C-2.64444707 3.35135455 -1.30368347 1.68996005 0 0 Z " fill="#50C3C4" transform="translate(344,75)"/>
<path d="M0 0 C0.268125 0.639375 0.53625 1.27875 0.8125 1.9375 C1.88667752 4.33131686 1.88667752 4.33131686 5 5 C2.36 7.64 -0.28 10.28 -3 13 C-4.25541557 9.23375329 -3.37061958 7.62811066 -2 4 C-1.34 4 -0.68 4 0 4 C-0.33 3.01 -0.66 2.02 -1 1 C-0.67 0.67 -0.34 0.34 0 0 Z " fill="#3D6D78" transform="translate(469,456)"/>
<path d="M0 0 C0.99 0.33 1.98 0.66 3 1 C3 2.66666667 3 4.33333333 3 6 C4.45833358 7.62514468 4.45833358 7.62514468 6 9 C2.38970831 9 -0.55806676 8.03907418 -4 7 C-3.01 6.67 -2.02 6.34 -1 6 C-0.34 6.33 0.32 6.66 1 7 C1 6.34 1 5.68 1 5 C-0.32 5 -1.64 5 -3 5 C-2.625 3.0625 -2.625 3.0625 -2 1 C-1.34 0.67 -0.68 0.34 0 0 Z " fill="#41717B" transform="translate(277,457)"/>
<path d="M0 0 C0.93979382 3.03856659 0.99875808 5.20695472 0.44140625 8.328125 C0.30283203 9.12734375 0.16425781 9.9265625 0.02148438 10.75 C-0.12998047 11.575 -0.28144531 12.4 -0.4375 13.25 C-0.58509766 14.09046875 -0.73269531 14.9309375 -0.88476562 15.796875 C-1.2491936 17.86588544 -1.62362541 19.93312939 -2 22 C-2.33 22 -2.66 22 -3 22 C-3.02696009 19.2291017 -3.04681952 16.4584655 -3.0625 13.6875 C-3.07087891 12.90181641 -3.07925781 12.11613281 -3.08789062 11.30664062 C-3.09111328 10.54931641 -3.09433594 9.79199219 -3.09765625 9.01171875 C-3.10289307 8.31522217 -3.10812988 7.61872559 -3.11352539 6.90112305 C-3 5 -3 5 -2 2 C-1.34 2 -0.68 2 0 2 C0 1.34 0 0.68 0 0 Z " fill="#3E666F" transform="translate(13,81)"/>
<path d="M0 0 C0 3 0 3 -1.42578125 4.765625 C-3.50110089 7.71123997 -3.7255993 10.19691771 -4.1875 13.75 C-4.42533203 15.50570312 -4.42533203 15.50570312 -4.66796875 17.296875 C-4.77753906 18.18890625 -4.88710938 19.0809375 -5 20 C-5.33 20 -5.66 20 -6 20 C-7.19258593 13.67410944 -7.34128075 9.30800376 -4.203125 3.59375 C-3 2 -3 2 0 0 Z " fill="#6EA2AA" transform="translate(314,88)"/>
<path d="M0 0 C0.33 0.66 0.66 1.32 1 2 C0.00664799 3.67063747 -0.99431758 5.33675599 -2 7 C-2.70670728 9.69254991 -2.70670728 9.69254991 -3 12 C-5.33333333 12 -7.66666667 12 -10 12 C-9.34 11.01 -8.68 10.02 -8 9 C-7.34 9 -6.68 9 -6 9 C-5.34 7.35 -4.68 5.7 -4 4 C-3.34 4 -2.68 4 -2 4 C-1.34 2.68 -0.68 1.36 0 0 Z " fill="#4FC1C2" transform="translate(369,46)"/>
<path d="M0 0 C0.5775 0.20625 1.155 0.4125 1.75 0.625 C-2.71726453 3.93942207 -6.87007164 4.28509167 -12.25 4.625 C-12.25 3.635 -12.25 2.645 -12.25 1.625 C-11.3425 1.66625 -10.435 1.7075 -9.5 1.75 C-6.33916179 1.85220143 -6.33916179 1.85220143 -4.125 0.5625 C-2.25 -0.375 -2.25 -0.375 0 0 Z " fill="#5B7D85" transform="translate(341.25,490.375)"/>
<path d="M0 0 C0.99 0.66 1.98 1.32 3 2 C1.68 2.33 0.36 2.66 -1 3 C-1.66 7.29 -2.32 11.58 -3 16 C-3.33 16 -3.66 16 -4 16 C-4.10841951 14.08458862 -4.18578079 12.16740227 -4.25 10.25 C-4.29640625 9.18265625 -4.3428125 8.1153125 -4.390625 7.015625 C-3.91735478 3.36197888 -2.80844958 2.27771895 0 0 Z " fill="#5E8187" transform="translate(352,464)"/>
<path d="M0 0 C2.64752004 2.57784846 4.94432065 4.91648098 7 8 C6.67 8.66 6.34 9.32 6 10 C4.68 9.67 3.36 9.34 2 9 C1.87625 8.360625 1.7525 7.72125 1.625 7.0625 C1.315625 6.0415625 1.315625 6.0415625 1 5 C0.34 4.67 -0.32 4.34 -1 4 C-0.67 2.68 -0.34 1.36 0 0 Z " fill="#54C3C2" transform="translate(440,35)"/>
<path d="M0 0 C4.92991345 -0.28999491 8.09251769 -0.19703098 12 3 C12 3.99 12 4.98 12 6 C11.01 5.67 10.02 5.34 9 5 C6.85744207 5.38932856 6.85744207 5.38932856 5 6 C5.66 5.01 6.32 4.02 7 3 C4.69 2.34 2.38 1.68 0 1 C0 0.67 0 0.34 0 0 Z " fill="#426D76" transform="translate(469,128)"/>
<path d="M0 0 C1.24546405 2.49092811 0.7767578 3.41080733 0 6 C-0.66 6 -1.32 6 -2 6 C-2.33 7.32 -2.66 8.64 -3 10 C-4.65 10.33 -6.3 10.66 -8 11 C-5.50127818 7.1626772 -2.9156164 3.54039134 0 0 Z " fill="#6BCBC8" transform="translate(378,35)"/>
<path d="M0 0 C1.65 0 3.3 0 5 0 C4.04956626 1.33897583 3.08940853 2.67105427 2.125 4 C1.59132813 4.7425 1.05765625 5.485 0.5078125 6.25 C0.01023437 6.8275 -0.48734375 7.405 -1 8 C-1.66 8 -2.32 8 -3 8 C-2.37240135 5.07120629 -1.41377341 2.63904371 0 0 Z " fill="#6E9DA5" transform="translate(320,77)"/>
<path d="M0 0 C2.875 -0.125 2.875 -0.125 6 0 C6.66 0.66 7.32 1.32 8 2 C5.82575883 4.50037734 4.26954202 5.43628586 1 6 C1.20625 5.38125 1.4125 4.7625 1.625 4.125 C1.74875 3.42375 1.8725 2.7225 2 2 C1.34 1.34 0.68 0.68 0 0 Z " fill="#1A5763" transform="translate(469,129)"/>
<path d="M0 0 C1.485 0.99 1.485 0.99 3 2 C3 2.66 3 3.32 3 4 C3.9590625 4.433125 3.9590625 4.433125 4.9375 4.875 C7 6 7 6 8 8 C5.125 7.6875 5.125 7.6875 2 7 C0 4 0 4 0 0 Z " fill="#5D969A" transform="translate(312,116)"/>
<path d="M0 0 C1.484375 1.27734375 1.484375 1.27734375 3 3 C3.43076923 9.13846154 3.43076923 9.13846154 2 12 C1.01 12 0.02 12 -1 12 C-0.67 11.01 -0.34 10.02 0 9 C0.06740865 7.43881572 0.08514456 5.8749748 0.0625 4.3125 C0.05347656 3.50425781 0.04445313 2.69601563 0.03515625 1.86328125 C0.02355469 1.24839844 0.01195312 0.63351563 0 0 Z " fill="#35B2AF" transform="translate(493,97)"/>
<path d="M0 0 C1.65 0 3.3 0 5 0 C5.66 1.32 6.32 2.64 7 4 C6.34 4 5.68 4 5 4 C5.33 5.32 5.66 6.64 6 8 C4.5 6.625 4.5 6.625 3 5 C3 4.34 3 3.68 3 3 C2.34 3 1.68 3 1 3 C0.67 2.01 0.34 1.02 0 0 Z " fill="#537780" transform="translate(17,457)"/>
<path d="M0 0 C1.32 0.66 2.64 1.32 4 2 C3.67 3.98 3.34 5.96 3 8 C0 6 0 6 -0.75 3.4375 C-0.8325 2.633125 -0.915 1.82875 -1 1 C-0.67 0.67 -0.34 0.34 0 0 Z " fill="#448D99" transform="translate(354,127)"/>
<path d="M0 0 C0 0.99 0 1.98 0 3 C-3.63 2.34 -7.26 1.68 -11 1 C-6.46780033 -1.26609984 -4.82227075 -0.92735976 0 0 Z " fill="#64C5C3" transform="translate(415,7)"/>
<path d="M0 0 C3.60513403 2.06007659 6.80331012 4.3513141 10 7 C8.02 7.66 6.04 8.32 4 9 C3.896875 8.401875 3.79375 7.80375 3.6875 7.1875 C2.90614947 4.70138466 1.85104584 3.77056558 0 2 C0 1.34 0 0.68 0 0 Z " fill="#C0E8E7" transform="translate(365,229)"/>
<path d="M0 0 C0.99 0.99 1.98 1.98 3 3 C2.01 4.485 2.01 4.485 1 6 C-0.32 6 -1.64 6 -3 6 C-1.125 1.125 -1.125 1.125 0 0 Z " fill="#2F8289" transform="translate(312,84)"/>
<path d="M0 0 C4.875 3.625 4.875 3.625 6 7 C2.89448334 7 1.64738916 6.4606285 -1 5 C-0.67 3.35 -0.34 1.7 0 0 Z " fill="#54BDB9" transform="translate(424,17)"/>
<path d="M0 0 C0.33 0.99 0.66 1.98 1 3 C1.66 3.33 2.32 3.66 3 4 C2.34 4 1.68 4 1 4 C0.34 5.32 -0.32 6.64 -1 8 C-1.66 6.02 -2.32 4.04 -3 2 C-2.01 1.34 -1.02 0.68 0 0 Z " fill="#3A6671" transform="translate(290,481)"/>
<path d="M0 0 C0.33 0.66 0.66 1.32 1 2 C1.99 2.33 2.98 2.66 4 3 C2.68 3 1.36 3 0 3 C-0.33 4.65 -0.66 6.3 -1 8 C-2.32 7.67 -3.64 7.34 -5 7 C-4.505 6.566875 -4.01 6.13375 -3.5 5.6875 C-1.66781808 4.00259517 -1.66781808 4.00259517 -2 1 C-1.34 0.67 -0.68 0.34 0 0 Z " fill="#1B555F" transform="translate(358,457)"/>
<path d="M0 0 C1.32 0.66 2.64 1.32 4 2 C2.824375 2.680625 2.824375 2.680625 1.625 3.375 C-1.03698031 4.88428742 -1.03698031 4.88428742 -3 7 C-2.25 2.25 -2.25 2.25 0 0 Z " fill="#9EDDDD" transform="translate(422,446)"/>
<path d="M0 0 C0.66 0.33 1.32 0.66 2 1 C0.8125 4.4375 0.8125 4.4375 -1 8 C-3.6875 8.9375 -3.6875 8.9375 -6 9 C-4.47291037 5.56404834 -2.40072955 2.88087546 0 0 Z " fill="#76CCCF" transform="translate(331,90)"/>
<path d="M0 0 C0.33 0 0.66 0 1 0 C1 4.62 1 9.24 1 14 C0.01 13.67 -0.98 13.34 -2 13 C-1.34 8.71 -0.68 4.42 0 0 Z " fill="#B2EFF1" transform="translate(284,236)"/>
<path d="M0 0 C3.68754757 0.49831724 5.60490662 1.10067643 8 4 C4 4 4 4 1.75 2 C1.1725 1.34 0.595 0.68 0 0 Z " fill="#597C83" transform="translate(375,470)"/>
<path d="M0 0 C0.33 0.66 0.66 1.32 1 2 C-1.17508418 6.69360269 -1.17508418 6.69360269 -4.1875 7.8125 C-4.785625 7.874375 -5.38375 7.93625 -6 8 C-5.34 6.68 -4.68 5.36 -4 4 C-3.34 4 -2.68 4 -2 4 C-1.34 2.68 -0.68 1.36 0 0 Z " fill="#73CDCB" transform="translate(369,46)"/>
<path d="M0 0 C2.31 0.33 4.62 0.66 7 1 C7 1.33 7 1.66 7 2 C4.03 2.66 1.06 3.32 -2 4 C-1.34 2.68 -0.68 1.36 0 0 Z " fill="#63858E" transform="translate(359,461)"/>
<path d="M0 0 C2.03833424 1.2739589 4.03852126 2.61061923 6 4 C6 4.66 6 5.32 6 6 C3.83125748 5.49396008 2.00032373 5.00016187 0 4 C0 2.68 0 1.36 0 0 Z " fill="#5ABFBB" transform="translate(375,216)"/>
<path d="M0 0 C0.66 0.33 1.32 0.66 2 1 C1.3125 2.9375 1.3125 2.9375 0 5 C-2.625 5.75 -2.625 5.75 -5 6 C-3.35 4.02 -1.7 2.04 0 0 Z " fill="#63C5C5" transform="translate(402,8)"/>
</svg>
